<svg version="1.1" id="Layer_1" xmlns="http://www.w3.org/2000/svg" xmlns:xlink="http://www.w3.org/1999/xlink" x="0px" y="0px"
	 width="100%" viewBox="0 0 384 400" enable-background="new 0 0 384 400" xml:space="preserve">
<path fill="#000000" opacity="1.000000" stroke="none" 
	d="
M385.000000,138.531342 
	C382.253418,131.754669 379.652405,124.450073 376.731567,117.275696 
	C369.461578,99.418526 358.915894,83.655899 346.196594,69.200676 
	C331.793427,52.831802 315.061951,39.457581 296.026031,28.946018 
	C278.365356,19.193886 259.705353,12.234450 239.867096,8.138483 
	C224.182083,4.900028 208.435013,2.901095 192.475540,3.465225 
	C165.417053,4.421679 139.328812,9.764176 114.368126,20.753447 
	C89.998917,31.482311 68.595863,46.244637 50.515018,65.666115 
	C31.111231,86.508644 17.181179,110.604645 9.362049,138.101151 
	C5.305443,152.366486 2.937698,166.843170 3.273425,181.745819 
	C3.368794,185.979202 4.708313,187.840973 9.093971,187.688324 
	C15.249669,187.474045 21.421194,187.748337 27.580910,187.601807 
	C30.836786,187.524353 32.421909,188.407364 32.394836,192.058182 
	C32.261433,210.047363 32.279915,228.038315 32.371590,246.028000 
	C32.388023,249.252975 31.218370,250.474030 27.995342,250.404449 
	C21.335546,250.260696 14.669841,250.417984 8.007442,250.356476 
	C4.384926,250.323044 3.054187,251.240555 3.956146,255.416870 
	C9.686090,281.948090 15.066673,308.554535 20.695124,335.108093 
	C21.152662,337.266632 21.335302,339.365936 21.337963,341.514740 
	C21.358385,358.005768 21.428387,374.497406 21.291565,390.987305 
	C21.260712,394.705750 21.905764,397.875183 24.944118,400.645142 
	C17.003700,401.000000 9.007400,401.000000 1.008325,401.000000 
	C1.005550,267.732025 1.005550,134.464066 1.005550,1.098044 
	C128.999969,1.098044 256.999969,1.098044 385.000000,1.098044 
	C385.000000,46.771622 385.000000,92.417152 385.000000,138.531342 
z"/>
<path fill="#000000" opacity="1.000000" stroke="none" 
	d="
M113.468658,401.000000 
	C116.633308,397.857788 118.310089,393.960358 117.666328,389.123871 
	C117.189529,385.541748 119.012268,384.487091 122.347214,384.613495 
	C127.003754,384.789978 131.673187,384.590973 136.335571,384.657867 
	C141.318253,384.729309 145.276917,382.762512 147.163727,378.178650 
	C153.521530,362.733124 168.692123,359.756195 182.714081,361.132812 
	C196.692169,362.505127 210.609512,366.096527 224.719360,364.500336 
	C243.595657,362.364990 261.666931,356.845795 279.119781,349.359222 
	C302.110748,339.497009 322.481232,325.545319 339.905029,307.786102 
	C358.688080,288.641418 372.854156,266.285461 381.557709,240.706970 
	C382.409912,238.202469 383.376892,235.737030 384.645294,233.126724 
	C385.000000,288.944275 385.000000,344.888550 385.000000,401.000000 
	C294.645844,401.000000 204.291580,401.000000 113.468658,401.000000 
z"/>
<path fill="#000000" opacity="1.000000" stroke="none" 
	d="
M91.467606,401.000000 
	C95.380615,398.414948 97.403229,394.750824 96.732979,389.537933 
	C96.453720,387.366028 96.181305,384.781158 99.847397,384.686890 
	C103.834526,384.584442 103.514908,387.339966 103.286919,389.724548 
	C102.860641,394.182892 103.876968,397.845367 107.936562,400.652893 
	C102.645073,401.000000 97.290138,401.000000 91.467606,401.000000 
z"/>
<path fill="#000000" opacity="1.000000" stroke="none" 
	d="
M51.466118,401.000000 
	C54.534866,397.873840 56.225021,394.065948 55.697456,389.257416 
	C55.434822,386.863586 55.591331,384.590302 59.140217,384.683441 
	C62.812172,384.779724 62.485779,387.343811 62.276798,389.545868 
	C61.878113,393.746918 62.849247,397.342804 65.964676,400.646973 
	C61.310745,401.000000 56.621487,401.000000 51.466118,401.000000 
z"/>
<path fill="#000000" opacity="1.000000" stroke="none" 
	d="
M30.466862,401.000000 
	C34.244713,397.671509 36.050613,393.297272 35.702110,387.943787 
	C35.578518,386.045197 36.244907,384.728455 38.504177,384.753479 
	C40.746517,384.778351 41.367149,386.099182 41.298954,387.994171 
	C41.128231,392.738159 41.037922,397.432861 45.938175,400.653381 
	C40.977909,401.000000 35.955814,401.000000 30.466862,401.000000 
z"/>
<path fill="#000000" opacity="1.000000" stroke="none" 
	d="
M71.466858,401.000000 
	C75.321693,398.495605 76.812912,394.626831 76.712891,389.795685 
	C76.670074,387.727295 75.779396,384.677917 79.612679,384.809082 
	C83.395683,384.938568 82.356537,388.008728 82.268471,390.019409 
	C82.080292,394.315613 83.210464,397.824768 86.932518,400.655151 
	C81.977905,401.000000 76.955818,401.000000 71.466858,401.000000 
z"/>
<path fill="#000000" opacity="1.000000" stroke="none" 
	d="
M106.534851,190.284805 
	C123.437080,182.748520 140.292099,187.369263 149.399902,202.496094 
	C155.283569,212.268082 156.393494,223.025848 150.709000,233.330536 
	C144.753983,244.125580 135.757370,250.869507 122.833130,251.373184 
	C98.698685,252.313721 81.342377,227.399567 92.886742,203.567398 
	C95.654800,197.853012 100.349236,193.400070 106.534851,190.284805 
z"/>
<path fill="#000000" opacity="1.000000" stroke="none" 
	d="
M76.676025,256.397858 
	C82.551025,266.566650 88.255806,276.406616 94.363876,286.942200 
	C71.275520,286.942200 49.282009,286.942200 25.799900,286.942200 
	C37.248344,266.943665 48.145302,247.908524 59.605015,227.890305 
	C66.553787,237.262878 71.275452,246.826324 76.676025,256.397858 
z"/>
</svg>